<?xml version="1.0" encoding="UTF-8"?>
<svg enable-background="new 0 0 193.6 261.6" version="1.1" viewBox="0 0 193.6 261.6" xml:space="preserve" xmlns="http://www.w3.org/2000/svg" xmlns:cc="http://creativecommons.org/ns#" xmlns:dc="http://purl.org/dc/elements/1.1/" xmlns:rdf="http://www.w3.org/1999/02/22-rdf-syntax-ns#">
    <g transform="translate(-491 -145.3)" fill="#77B55A">
        <path d="m617.4 172.2c12.9-9.9 28.3-6.2 28.3-6.2s-2.6 18.3-15.5 28.2-31.4 7.5-31.4 7.5 4-6 8-13.9c2.4-4.6 5.8-12 10.6-15.6z" />
        <path d="m586.3 187.1c-6-4.6-13.2-2.9-13.2-2.9s1.2 8.6 7.2 13.2 14.6 3.5 14.6 3.5-1.9-2.8-3.7-6.5c-1.1-2.2-2.7-5.6-4.9-7.3z" />
        <path d="m587.8 230.8c1.8 0 3.5 0.1 5.3 0.2-1.6-9.4-1.3-19.1 3.6-27.5-8.5 6.8-12.6 17.2-14.7 27.6 1.9-0.2 3.8-0.3 5.8-0.3z" />
        <path d="m587.8 233.9c-42.4 0-76.8 34.3-76.8 76.5 0 42.3 34.4 76.5 76.8 76.5s76.8-34.3 76.8-76.5c-0.1-42.2-34.4-76.5-76.8-76.5zm31.3 107.8-31.4-21.5-31.4 21.5 21.6-31.3-21.6-31.3 31.4 21.5 31.4-21.5-21.6 31.3z" />
    </g>
</svg>
